<svg width="16" height="18" viewBox="0 0 16 18" fill="none" xmlns="http://www.w3.org/2000/svg">
<path d="M5.73191 13.7721C5.83404 12.7703 5.8851 11.4442 5.8851 9.79406C5.8851 8.13407 5.82837 6.91611 5.71489 6.14014L5.05106 6.09595C5.01702 5.97809 5 5.82582 5 5.63921C5 5.45257 5.00567 5.3298 5.01702 5.27086C5.74326 5.26105 6.39006 5.21684 6.95743 5.13828C7.5248 5.05969 8.12622 5.02039 8.76168 5.02039C9.90776 5.02039 10.7758 5.25121 11.3659 5.71286C11.9673 6.1647 12.2681 6.85227 12.2681 7.77557C12.2681 8.69887 11.9049 9.39625 11.1787 9.86774C12.3929 10.2901 13 11.0415 13 12.122C13 13.0354 12.6709 13.7279 12.0127 14.1994C11.3545 14.661 10.3844 14.8919 9.10209 14.8919C8.38721 14.8919 7.72339 14.8526 7.11062 14.774C6.03262 14.7052 5.33475 14.661 5.01702 14.6414C5.00567 14.5825 5 14.4646 5 14.2878C5 14.111 5.01702 13.9538 5.05106 13.8163L5.73191 13.7721ZM8.1489 9.18998C8.39857 9.33732 8.76168 9.411 9.23827 9.411C9.72622 9.411 10.1063 9.27348 10.3787 8.99846C10.651 8.71361 10.7872 8.29124 10.7872 7.73138C10.7872 7.16168 10.6056 6.70984 10.2425 6.37587C9.87941 6.03209 9.36308 5.86022 8.69359 5.86022C8.27373 5.86022 7.80849 5.94862 7.29786 6.12542C7.20708 6.94067 7.16169 8.12916 7.16169 9.69094C7.16169 11.2527 7.20708 12.5345 7.29786 13.5364C7.96735 13.7623 8.57443 13.8753 9.11912 13.8753C10.7191 13.8753 11.5191 13.2908 11.5191 12.122C11.5191 11.1397 10.9915 10.5406 9.93615 10.3245C9.59571 10.3736 9.26095 10.3981 8.9319 10.3981C8.61414 10.3981 8.23403 10.3245 7.79147 10.1771C7.79147 9.72529 7.91062 9.39625 8.1489 9.18998Z" fill="white"/>
<path fill-rule="evenodd" clip-rule="evenodd" d="M9.42549 6.78839C9.42549 5.08915 9.4652 3.85643 9.54465 3.09028C10.3844 3.10993 11.0425 3.12957 11.5191 3.14922L11.5702 4.13636C11.7631 4.16583 11.9333 4.18056 12.0808 4.18056C12.2397 4.18056 12.3872 4.17565 12.5234 4.16583C12.546 3.52738 12.5971 2.82999 12.6766 2.07367L12.5914 2C12.1262 2.0884 10.9688 2.1326 9.11912 2.1326C7.26949 2.1326 5.92482 2.0884 5.08511 2L5 2.07367C5.06808 2.76123 5.11915 3.50773 5.15319 4.31316C5.28936 4.323 5.43688 4.3279 5.59574 4.3279C5.7546 4.3279 5.92482 4.31316 6.10638 4.2837L6.15744 3.19342C6.94041 3.13448 7.55317 3.1001 7.99572 3.09028C8.09784 3.87607 8.1489 5.07931 8.1489 6.69999C8.1489 7.89694 8.12386 8.93936 8.07372 9.8272H9.4957C9.44891 9.01424 9.42549 8.00132 9.42549 6.78839Z" fill="white"/>
<path fill-rule="evenodd" clip-rule="evenodd" d="M9.52124 17.9999C10.9201 18.0048 11.8659 17.8882 12.3586 17.9336L12.4467 17.8573C12.3762 17.1245 12.3233 16.3714 12.288 15.5979C12.1469 15.5877 11.9941 15.5826 11.8295 15.5826C11.6766 15.5826 11.5002 15.5979 11.3004 15.6285L11.2475 16.6666C10.883 16.7174 10.348 16.7428 9.64254 16.7428C9.60155 16.7428 9.5611 16.7428 9.52124 16.7427V17.9999Z" fill="white"/>
<path fill-rule="evenodd" clip-rule="evenodd" d="M8.20497 12.704C8.20497 11.8722 8.22172 10.9133 8.19156 10.2877H9.52133C9.49377 11.0176 9.52768 12.0986 9.52768 13.0704C9.52768 14.6528 9.56463 15.8739 9.63861 16.7336H9.63754L9.65429 17.9998C8.50349 18.0014 7.74927 17.9917 7.42893 17.9998C7.39364 17.8471 7.39368 17.7622 7.39368 17.6502C7.39368 17.5281 7.40543 17.3754 7.42894 17.1923L8.04623 17.1464C8.15203 15.742 8.20497 14.2612 8.20497 12.704Z" fill="white"/>
</svg>
