<svg width="19" height="36" viewBox="0 0 19 36" fill="none" xmlns="http://www.w3.org/2000/svg">
<path d="M2.53645 26.4882C2.76623 24.234 2.88113 21.2504 2.88113 17.5375C2.88113 13.8026 2.75347 11.0621 2.49815 9.3162L1.00454 9.21678C0.927946 8.95158 0.889648 8.60898 0.889648 8.18911C0.889648 7.76917 0.902415 7.49293 0.927946 7.36033C2.56198 7.33825 4.01729 7.23877 5.29388 7.06201C6.57047 6.88519 7.92366 6.79675 9.35345 6.79675C11.9321 6.79675 13.8853 7.31611 15.213 8.35482C16.5662 9.37146 17.2428 10.9185 17.2428 12.9959C17.2428 15.0733 16.4258 16.6425 14.7917 17.7033C17.5236 18.6536 18.8896 20.3443 18.8896 22.7753C18.8896 24.8307 18.1491 26.3887 16.6683 27.4495C15.1874 28.4883 13.0045 29.0076 10.1194 29.0076C8.51089 29.0076 7.01728 28.9192 5.63856 28.7424C3.21304 28.5877 1.64284 28.4883 0.927946 28.444C0.902415 28.3114 0.889648 28.0462 0.889648 27.6484C0.889648 27.2506 0.927946 26.897 1.00454 26.5876L2.53645 26.4882ZM7.97469 16.1784C8.53644 16.5099 9.35345 16.6756 10.4258 16.6756C11.5237 16.6756 12.3789 16.3662 12.9917 15.7474C13.6045 15.1065 13.9109 14.1562 13.9109 12.8965C13.9109 11.6147 13.5024 10.598 12.6853 9.8466C11.8683 9.07308 10.7066 8.68638 9.20024 8.68638C8.25556 8.68638 7.20877 8.88528 6.05983 9.28308C5.85558 11.1174 5.75345 13.7915 5.75345 17.3055C5.75345 20.8195 5.85558 23.7035 6.05983 25.9578C7.56619 26.4661 8.93213 26.7202 10.1577 26.7202C13.7577 26.7202 15.5577 25.4052 15.5577 22.7753C15.5577 20.5653 14.3705 19.2172 11.996 18.731C11.23 18.8414 10.4768 18.8967 9.73644 18.8967C9.02148 18.8967 8.16622 18.731 7.17047 18.3994C7.17047 17.3828 7.43855 16.6425 7.97469 16.1784Z" fill="#7C72FC"/>
<path fill-rule="evenodd" clip-rule="evenodd" d="M10.847 10.7739C10.847 6.9506 10.9364 4.17697 11.1151 2.45314C13.0045 2.49734 14.4854 2.54154 15.5577 2.58574L15.6726 4.80683C16.1066 4.87312 16.4896 4.90627 16.8215 4.90627C17.1789 4.90627 17.5108 4.89523 17.8173 4.87312C17.8683 3.4366 17.9832 1.86748 18.1619 0.165753L17.9704 0C16.9237 0.198901 14.3194 0.298354 10.1577 0.298354C5.996 0.298354 2.97049 0.198901 1.08114 0L0.889648 0.165753C1.04284 1.71278 1.15773 3.3924 1.23433 5.20463C1.54071 5.22675 1.87263 5.23778 2.23007 5.23778C2.58751 5.23778 2.97049 5.20463 3.379 5.13833L3.49389 2.68519C5.25559 2.55259 6.6343 2.47524 7.63004 2.45314C7.8598 4.22116 7.97469 6.92846 7.97469 10.575C7.97469 13.2681 7.91835 15.6136 7.80553 17.6112H11.005C10.8997 15.7821 10.847 13.503 10.847 10.7739Z" fill="#7C72FC"/>
<path fill-rule="evenodd" clip-rule="evenodd" d="M11.062 35.9995C14.2096 36.0106 16.3376 35.7484 17.446 35.8505L17.6444 35.6788C17.4856 34.03 17.3666 32.3355 17.2872 30.5952C16.9698 30.5723 16.6259 30.5608 16.2556 30.5608C15.9117 30.5608 15.5148 30.5952 15.0651 30.6639L14.946 32.9996C14.1259 33.1141 12.9223 33.1713 11.3349 33.1713C11.2427 33.1713 11.1517 33.1712 11.062 33.1709V35.9995Z" fill="#7C72FC"/>
<path fill-rule="evenodd" clip-rule="evenodd" d="M8.10153 24.0838C8.10153 22.2123 8.13923 20.0547 8.07136 18.6471H11.0633C11.0013 20.2892 11.0776 22.7216 11.0776 24.9082C11.0776 28.4686 11.1608 31.216 11.3272 33.1505H11.3248L11.3625 35.9994C8.7732 36.003 7.0762 35.981 6.35544 35.9994C6.27604 35.6558 6.27612 35.4646 6.27612 35.2128C6.27612 34.938 6.30257 34.5945 6.35546 34.1823L7.74437 34.0792C7.98243 30.9192 8.10153 27.5873 8.10153 24.0838Z" fill="#7C72FC"/>
</svg>
